<?xml version="1.0" encoding="utf-8"?>
<!-- Generator: Adobe Illustrator 24.0.3, SVG Export Plug-In . SVG Version: 6.00 Build 0)  -->
<svg version="1.1" id="Capa_1" xmlns="http://www.w3.org/2000/svg" xmlns:xlink="http://www.w3.org/1999/xlink" x="0px" y="0px"
	 viewBox="0 0 37.7 36.7" style="enable-background:new 0 0 37.7 36.7;" xml:space="preserve">
<style type="text/css">
	.st0{fill:#33CCFF;}
	.st1{fill:#FFFFFF;}
</style>
<g>
	<ellipse transform="matrix(0.9221 -0.3868 0.3868 0.9221 -5.6818 8.7091)" class="st0" cx="18.8" cy="18.5" rx="17.7" ry="17.7"/>
	<g>
		<g>
			<path class="st1" d="M23.8,10.1c0,2.8-2.3,5-5,5s-5-2.3-5-5c0-2.8,2.3-5,5-5S23.8,7.4,23.8,10.1z"/>
		</g>
		<g>
			<path class="st1" d="M18.8,16.9L18.8,16.9c-5.2,0-9.3,4.2-9.3,9.3l0,0c0,1.4,1.1,2.5,2.5,2.5h13.8c1.4,0,2.5-1.1,2.5-2.5l0,0
				C28.1,21.1,24,16.9,18.8,16.9z"/>
		</g>
	</g>
</g>
</svg>
